<svg width="64" height="64" viewBox="0 0 64 64" xmlns="http://www.w3.org/2000/svg">
  <rect width="64" height="64" fill="#4A6DE5" rx="8"/>
  <path d="M8 56h48v4H8v-4z" fill="white"/>
  <path d="M12 56V20h16v32H12z" fill="white"/>
  <path d="M32 56V16h20v40H32z" fill="white"/>
  <path d="M16 24h8v28h-8V24z" fill="#4A6DE5"/>
  <path d="M36 20h12v32h-12V20z" fill="#4A6DE5"/>
  <path d="M14 20h12v4H14v-4z" fill="white"/>
  <path d="M34 16h16v4H34v-4z" fill="white"/>
  <rect x="18" y="28" width="4" height="4" fill="white"/>
  <rect x="26" y="28" width="4" height="4" fill="white"/>
  <rect x="38" y="24" width="4" height="4" fill="white"/>
  <rect x="46" y="24" width="4" height="4" fill="white"/>
</svg>